<svg xmlns="http://www.w3.org/2000/svg" version="1.1" xmlns:xlink="http://www.w3.org/1999/xlink" xmlns:svgjs="http://svgjs.dev/svgjs" width="1500" height="407" viewBox="0 0 1500 407"><g transform="matrix(1,0,0,1,-1.8466386554623568,-1.5042216494844922)"><svg viewBox="0 0 357 97" data-background-color="#ffffff" preserveAspectRatio="xMidYMid meet" height="407" width="1500" xmlns="http://www.w3.org/2000/svg" xmlns:xlink="http://www.w3.org/1999/xlink"><g id="tight-bounds" transform="matrix(1,0,0,1,0.43950000000003797,0.35849999999999227)"><svg viewBox="0 0 356.12052 96.28285968957871" height="96.28285968957871" width="356.12052"><g><svg viewBox="0 0 356.12052 96.28285968957871" height="96.28285968957871" width="356.12052"><g><svg viewBox="0 0 356.12052 96.28285968957871" height="96.28285968957871" width="356.12052"><g><path d="M0 96.283v-96.283h356.121v96.283z" fill="#5A72A0" stroke="transparent" stroke-width="0" rx="0%" data-fill-palette-color="tertiary"></path><path d="M3.283 93v-89.717h349.554v89.717z" fill="#ffffff" stroke="transparent" stroke-width="0" rx="0%" data-fill-palette-color="quaternary"></path><path d="M9.85 86.433v-76.583h336.421v76.583z" fill="#5A72A0" stroke="transparent" stroke-width="0" data-fill-palette-color="tertiary"></path></g><g transform="matrix(1,0,0,1,19.69974,19.69974)" id="textblocktransform"><svg viewBox="0 0 316.72104 56.88337968957872" height="56.88337968957872" width="316.72104" id="textblock"><g><svg viewBox="0 0 316.72104 56.88337968957872" height="56.88337968957872" width="316.72104"><g transform="matrix(1,0,0,1,0,0)"><svg width="316.72104" viewBox="1.54 -39.06 220.19 39.550000000000004" height="56.88337968957872" data-palette-color="#ffffff"><path d="M9.64-30.79L9.64-30.79 9.67-6.47Q9.69-5.08 9.99-4.37 10.28-3.66 11.21-3.66L11.21-3.66Q15.55-3.66 17.97-9.18L17.97-9.18Q20.31-14.55 20.31-24.07L20.31-24.07Q20.31-29.08 19.14-31.67L19.14-31.67Q17.55-35.16 13.62-35.16L13.62-35.16Q11.11-35.16 10.53-34.57 9.96-33.98 9.8-33.12 9.64-32.25 9.64-30.79ZM2.86 0L2.86 0Q3.64-1.86 3.77-3.1 3.91-4.35 4-5.76L4-5.76Q4.2-8.64 4.2-13.5L4.2-13.5Q4.2-19.38 4-24.24L4-24.24 3.74-30.96Q3.64-33.5 3.3-34.5L3.3-34.5Q2.76-36.08 1.54-37.35L1.54-37.35 14.94-37.35Q23.29-37.35 25.85-30.79L25.85-30.79Q26.76-28.47 26.76-25.17L26.76-25.17Q26.76-6.74 14.26-1.68L14.26-1.68Q10.03 0.02 4.32 0.02L4.32 0.02Q3.96 0.02 3.59 0.02 3.22 0.02 2.86 0ZM42.36-23.19L42.36-23.19Q39.52-23.19 39.52-19.85L39.52-19.85Q39.52-5.98 39.99-3.52L39.99-3.52Q40.26-2.03 40.67-1.29L40.67-1.29 41.4 0 32.74 0Q33.52-1.86 33.65-3.1 33.79-4.35 33.88-5.76L33.88-5.76Q34.08-8.64 34.08-13.5L34.08-13.5Q34.08-19.38 33.88-24.24L33.88-24.24 33.62-30.96Q33.52-33.5 33.18-34.5L33.18-34.5Q32.64-36.08 31.42-37.35L31.42-37.35 44.33-37.35Q50.24-37.35 52.88-36.18L52.88-36.18Q55.66-34.96 55.66-32.01L55.66-32.01Q55.66-29.42 53.73-27.15L53.73-27.15Q51.93-25.05 49-23.8L49-23.8Q49.36-14.43 54.88-5.81L54.88-5.81Q57.25-2.08 59.71 0L59.71 0 50.56 0Q48.17-3.27 46.14-13.26L46.14-13.26Q45.46-16.72 45.25-19.02 45.04-21.31 44.91-21.79 44.77-22.27 44.48-22.56L44.48-22.56Q43.89-23.19 42.36-23.19ZM47.98-27.55Q48.65-28.27 48.94-29.1 49.22-29.93 49.22-30.7 49.22-31.47 49.01-32.24 48.8-33.01 48.19-33.59L48.19-33.59Q46.85-34.91 43.5-34.91L43.5-34.91Q42.26-34.91 41.49-34.81 40.72-34.72 40.28-34.28L40.28-34.28Q39.52-33.54 39.52-30.54L39.52-30.54Q39.52-27.91 40.09-27.17L40.09-27.17Q41.09-25.88 43.11-25.88 45.14-25.88 46.23-26.35 47.31-26.83 47.98-27.55ZM80.15-9.03L80.15-9.03Q80.81-8.13 80.81-6.42 80.81-4.71 80.66-3.7 80.51-2.69 80.2-1.86L80.2-1.86Q79.46 0 78.27 0L78.27 0 58.49 0Q60.37-1 60.98-1.93L60.98-1.93Q62.13-3.66 62.13-6.32L62.13-6.32Q62.1-12.84 62.1-18.12L62.1-18.12 62.1-30.96Q62.1-34.59 60.96-36.23L60.96-36.23Q60.52-36.82 59.91-37.35L59.91-37.35 78.27-37.35Q79.93-36.77 80.54-33.25L80.54-33.25Q80.71-32.28 80.71-31.35L80.71-31.35Q80.71-29.44 80.15-28.32L80.15-28.32 78.83-30.96Q77.51-33.54 75.04-34.42L75.04-34.42Q73.68-34.91 71.97-34.91 70.26-34.91 69.53-34.8 68.79-34.69 68.4-34.28L68.4-34.28Q67.77-33.57 67.77-31.58 67.77-29.59 67.87-28.82 67.96-28.05 68.33-27.56L68.33-27.56Q69.09-26.61 71.53-26.61L71.53-26.61 79.19-26.61Q78.63-25.2 78.05-24.61L78.05-24.61Q76.87-23.44 74.87-23.44L74.87-23.44Q74.09-23.44 73.38-23.61L73.38-23.61Q72.07-23.93 71.06-23.93 70.06-23.93 69.42-23.74 68.77-23.56 68.4-23.17L68.4-23.17Q67.77-22.49 67.77-20.7L67.77-20.7 67.77-9.06Q67.77-4.47 68.28-3.61 68.79-2.76 69.53-2.6 70.26-2.44 71.97-2.44 73.68-2.44 75.07-2.93 76.46-3.42 77.4-4.3 78.34-5.18 78.95-6.38 79.56-7.59 80.15-9.03ZM90.37-12.94L90.37-12.94Q90.06-10.4 90.06-8.9 90.06-7.4 90.42-6.13 90.79-4.86 91.47-3.93L91.47-3.93Q92.94-1.95 95.18-1.95L95.18-1.95Q99.48-1.95 99.48-6.69L99.48-6.69Q99.48-10.5 95.06-14.77L95.06-14.77 92.52-17.24Q89.18-20.46 87.96-22.41L87.96-22.41Q85.54-26.27 85.54-30.08L85.54-30.08Q85.54-33.18 87.54-35.28L87.54-35.28Q89.96-37.84 94.5-37.84L94.5-37.84Q96.28-37.84 97.18-37.67L97.18-37.67Q98.87-37.35 99.43-37.35L99.43-37.35Q100.85-37.35 101.63-38.23L101.63-38.23Q101.92-38.55 102.26-39.06L102.26-39.06Q104.05-38.06 104.05-31.71L104.05-31.71Q104.05-27.66 103.24-25.73L103.24-25.73Q102.97-25.07 102.63-24.9L102.63-24.9Q102.24-28.59 100.24-31.49L100.24-31.49Q97.89-34.91 94.82-34.91L94.82-34.91Q92.18-34.91 91.57-32.5L91.57-32.5Q91.4-31.81 91.4-30.8 91.4-29.79 92.01-28.49 92.62-27.2 93.61-25.92 94.6-24.63 95.89-23.34L95.89-23.34Q99.8-19.34 101.08-17.92 102.36-16.5 103.36-14.99L103.36-14.99Q105.56-11.6 105.56-8.42L105.56-8.42Q105.56-4.59 102.58-2.08L102.58-2.08Q99.5 0.49 94.67 0.49L94.67 0.49Q90.67 0.49 87.79-1.51L87.79-1.51Q84.61-3.71 84.61-7.32L84.61-7.32Q85.56-10.72 88.76-12.3L88.76-12.3Q89.62-12.74 90.37-12.94ZM115.54-12.94L115.54-12.94Q115.22-10.4 115.22-8.9 115.22-7.4 115.59-6.13 115.96-4.86 116.64-3.93L116.64-3.93Q118.11-1.95 120.35-1.95L120.35-1.95Q124.65-1.95 124.65-6.69L124.65-6.69Q124.65-10.5 120.23-14.77L120.23-14.77 117.69-17.24Q114.35-20.46 113.12-22.41L113.12-22.41Q110.71-26.27 110.71-30.08L110.71-30.08Q110.71-33.18 112.71-35.28L112.71-35.28Q115.13-37.84 119.67-37.84L119.67-37.84Q121.45-37.84 122.35-37.67L122.35-37.67Q124.04-37.35 124.6-37.35L124.6-37.35Q126.02-37.35 126.8-38.23L126.8-38.23Q127.09-38.55 127.43-39.06L127.43-39.06Q129.21-38.06 129.21-31.71L129.21-31.71Q129.21-27.66 128.41-25.73L128.41-25.73Q128.14-25.07 127.8-24.9L127.8-24.9Q127.41-28.59 125.41-31.49L125.41-31.49Q123.06-34.91 119.99-34.91L119.99-34.91Q117.35-34.91 116.74-32.5L116.74-32.5Q116.57-31.81 116.57-30.8 116.57-29.79 117.18-28.49 117.79-27.2 118.78-25.92 119.77-24.63 121.06-23.34L121.06-23.34Q124.97-19.34 126.25-17.92 127.53-16.5 128.53-14.99L128.53-14.99Q130.73-11.6 130.73-8.42L130.73-8.42Q130.73-4.59 127.75-2.08L127.75-2.08Q124.67 0.49 119.84 0.49L119.84 0.49Q115.83 0.49 112.95-1.51L112.95-1.51Q109.78-3.71 109.78-7.32L109.78-7.32Q110.73-10.72 113.93-12.3L113.93-12.3Q114.78-12.74 115.54-12.94ZM136.27-37.35L144.69-37.35Q143.79-35.08 143.64-32.8 143.49-30.52 143.42-28.88 143.35-27.25 143.3-25.49L143.3-25.49Q143.22-21.39 143.22-18.02L143.22-18.02Q143.22-4.2 144.25-1.07L144.25-1.07Q144.42-0.54 144.69 0L144.69 0 136.27 0Q137.02-1.66 137.17-3 137.32-4.35 137.44-6.2L137.44-6.2Q137.73-10.03 137.73-15.04 137.73-20.04 137.71-21.89 137.68-23.73 137.63-25.49L137.63-25.49Q137.46-34.06 136.61-36.38L136.61-36.38 136.27-37.35ZM170.79-9.03L170.79-9.03Q171.44-8.13 171.44-6.42 171.44-4.71 171.3-3.7 171.15-2.69 170.83-1.86L170.83-1.86Q170.1 0 168.91 0L168.91 0 149.13 0Q151.01-1 151.62-1.93L151.62-1.93Q152.77-3.66 152.77-6.32L152.77-6.32Q152.74-12.84 152.74-18.12L152.74-18.12 152.74-30.96Q152.74-34.59 151.6-36.23L151.6-36.23Q151.16-36.82 150.55-37.35L150.55-37.35 168.91-37.35Q170.57-36.77 171.18-33.25L171.18-33.25Q171.35-32.28 171.35-31.35L171.35-31.35Q171.35-29.44 170.79-28.32L170.79-28.32 169.47-30.96Q168.15-33.54 165.68-34.42L165.68-34.42Q164.32-34.91 162.61-34.91 160.9-34.91 160.17-34.8 159.43-34.69 159.04-34.28L159.04-34.28Q158.41-33.57 158.41-31.58 158.41-29.59 158.51-28.82 158.6-28.05 158.97-27.56L158.97-27.56Q159.73-26.61 162.17-26.61L162.17-26.61 169.83-26.61Q169.27-25.2 168.69-24.61L168.69-24.61Q167.51-23.44 165.51-23.44L165.51-23.44Q164.73-23.44 164.02-23.61L164.02-23.61Q162.7-23.93 161.7-23.93 160.7-23.93 160.06-23.74 159.41-23.56 159.04-23.17L159.04-23.17Q158.41-22.49 158.41-20.7L158.41-20.7 158.41-9.06Q158.41-4.47 158.92-3.61 159.43-2.76 160.17-2.6 160.9-2.44 162.61-2.44 164.32-2.44 165.71-2.93 167.1-3.42 168.04-4.3 168.98-5.18 169.59-6.38 170.2-7.59 170.79-9.03ZM173.49-26.37L173.49-26.37Q172.91-27.78 172.91-29.71 172.91-31.64 173.05-32.87 173.2-34.11 173.44-35.11L173.44-35.11Q174.03-37.35 174.88-37.35L174.88-37.35 196.39-37.35Q197.81-37.35 198.3-33.15L198.3-33.15Q198.42-31.98 198.42-30.74L198.42-30.74Q198.42-27.81 197.79-26.37L197.79-26.37Q195.69-32.89 192.34-34.72L192.34-34.72Q191.58-35.16 190.85-35.16 190.12-35.16 189.7-34.78 189.29-34.4 189.02-33.57L189.02-33.57Q188.58-32.1 188.58-30.05L188.58-30.05 188.58-20.9 188.61-13.43 188.61-6.35Q188.61-3.96 189.23-2.82 189.85-1.68 190.5-1.1 191.14-0.51 192.02 0L192.02 0 179.55 0Q181.31-1.44 181.79-2.37L181.79-2.37Q182.7-4.05 182.7-6.35L182.7-6.35 182.7-28.34Q182.7-32.18 182.4-33.29 182.11-34.4 181.7-34.78 181.28-35.16 180.55-35.16 179.82-35.16 179.06-34.73 178.3-34.3 177.58-33.61 176.86-32.91 176.22-31.99 175.57-31.08 175.03-30.1L175.03-30.1Q173.98-28.17 173.49-26.37ZM207.18-5.88L207.18-9.4 207.21-14.5 207.21-17.29Q207.21-19.48 205.4-23.54L205.4-23.54Q204.01-26.59 203.52-27.56L203.52-27.56 202.71-29.17Q199.56-35.77 197.2-37.35L197.2-37.35 207.04-37.35Q206.86-36.87 206.86-36.11 206.86-35.35 206.99-34.51 207.11-33.67 207.3-32.79L207.3-32.79Q207.67-31.1 208.26-29.69L208.26-29.69 209.43-26.86Q210.04-25.44 210.94-23.97L210.94-23.97Q212.09-25.71 212.77-27.37L212.77-27.37 213.7-29.66Q215.09-33.2 215.09-36.4L215.09-36.4Q215.09-36.94 215.02-37.35L215.02-37.35 221.73-37.35Q220.39-35.94 218.93-33.23 217.46-30.52 216.87-29.3L216.87-29.3 215.63-26.59Q213.09-20.97 213.09-17.6L213.09-17.6 213.09-6.45Q213.09-3.96 213.68-2.86 214.26-1.76 214.92-1.15 215.58-0.54 216.51 0L216.51 0 204.03 0Q207.18-1.61 207.18-5.88L207.18-5.88Z" opacity="1" transform="matrix(1,0,0,1,0,0)" fill="#ffffff" class="wordmark-text-0" data-fill-palette-color="quaternary" id="text-0"></path></svg></g></svg></g></svg></g></svg></g><g></g></svg></g><defs></defs></svg><rect width="356.12052" height="96.28285968957871" fill="none" stroke="none" visibility="hidden"></rect></g></svg></g></svg>
